<svg width="348" height="125" viewBox="0 0 348 125" fill="none" xmlns="http://www.w3.org/2000/svg">
<rect y="9" width="348" height="102" fill="black" fill-opacity="0.01"/>
<g filter="url(#filter0_f_451_54)">
<path d="M60.365 55.78C58.65 53.785 56.445 53.435 54.52 53.435C49.655 53.435 46.75 57.005 46.75 63.27C46.75 66.525 47.485 68.87 48.99 70.305C50.495 71.705 52.21 72.44 54.24 72.44C56.165 72.44 58.825 72.02 60.26 69.885L60.295 77.095H48.29V80H63.445V53.435H60.365V55.78ZM54.625 69.885C51.65 69.885 49.935 68.24 49.935 63.515C49.935 58.09 51.685 56.165 55.08 56.165C58.58 56.165 60.365 58.3 60.365 62.885C60.365 67.96 58.16 69.885 54.625 69.885ZM70.5552 51.055C72.0252 51.055 73.2152 49.865 73.2152 48.395C73.2152 46.925 72.0252 45.735 70.5552 45.735C69.0852 45.735 67.8952 46.925 67.8952 48.395C67.8952 49.865 69.0852 51.055 70.5552 51.055ZM72.2002 53.05H69.0502V69.815H66.9502V73H74.3002V69.815H72.2002V53.05ZM86.8852 69.85H83.6302V55.22H86.8852V52.455H83.6302V46.89H80.4802V52.455H77.7852V55.22H80.4802V73H86.8852V69.85ZM93.6175 73V62.92C93.6175 58.055 96.8725 56.305 99.3225 56.305C101.737 56.305 103.592 57.775 103.592 62.78V73H106.917V62.29C106.917 57.6 104.572 53.435 100.022 53.435C97.5025 53.435 95.7175 53.995 93.6175 56.165V45H90.3975V73H93.6175ZM126.457 53.365H123.307V63.515C123.307 68.38 120.052 70.13 117.777 70.13C115.467 70.13 113.612 68.66 113.612 63.655V53.365H110.427V64.145C110.427 68.835 112.702 73 117.077 73C119.422 73 121.207 72.44 123.307 70.27V73H128.592V69.815H126.457V53.365ZM135.177 73V69.815C137.067 72.335 138.747 73 140.672 73C146.237 73 149.317 68.625 149.317 61.975C149.317 55.15 146.202 51.825 140.952 51.825C139.202 51.825 137.067 52.56 135.352 54.765V45H132.097V73H135.177ZM140.462 70.34C138.852 70.34 137.032 69.255 136.087 67.225C135.457 65.86 135.177 64.04 135.177 62.15C135.177 60.19 135.632 58.37 136.262 57.285C137.312 55.5 139.132 54.485 140.532 54.485C142.352 54.485 143.752 54.905 144.942 57.005C145.677 58.3 145.852 60.015 145.852 62.15C145.852 63.935 145.642 65.685 145.012 66.98C143.962 69.15 141.967 70.34 140.462 70.34ZM179.983 56.585H169.973V73H166.823V53.435H183.133V73H179.983V56.585ZM189.797 80V69.885C191.232 72.02 193.892 72.44 195.397 72.44C197.252 72.44 198.967 71.705 200.472 70.305C201.977 68.87 202.712 66.525 202.712 63.27C202.712 57.005 199.807 53.435 195.117 53.435C193.612 53.435 191.407 53.785 189.692 55.78V53.435H186.647V80H189.797ZM195.012 69.885C192.982 69.885 189.692 67.96 189.692 62.885C189.692 58.3 192.562 56.165 194.557 56.165C196.972 56.165 199.527 58.09 199.527 63.515C199.527 68.24 197.007 69.885 195.012 69.885ZM215.018 73.07C220.513 72.58 223.208 68.1 222.928 62.22C222.613 56.34 219.533 53.015 214.038 53.4C208.648 53.82 205.953 58.265 206.233 63.97C206.548 69.78 209.593 73.455 215.018 73.07ZM215.018 69.955C211.133 70.305 209.208 67.82 209.068 63.83C208.823 59.595 210.573 56.62 214.213 56.34C217.713 56.025 219.778 58.65 219.918 62.5C220.163 66.49 218.658 69.675 215.018 69.955ZM234.867 73C238.962 73 242.952 70.795 242.952 66.595L239.872 66.56C239.872 69.22 237.142 70.305 235.147 70.305C231.822 70.305 229.967 68.835 229.792 64.075H243.652C243.652 62.22 243.547 60.89 243.407 60.015C242.462 55.185 239.172 53.435 235.357 53.435C229.897 53.435 226.467 56.97 226.467 63.48C226.467 69.78 229.757 73 234.867 73ZM229.862 61.625C229.897 57.705 232.557 56.13 235.147 56.13C238.087 56.13 240.467 57.845 240.467 61.625H229.862ZM250.331 73V62.64C250.541 62.57 255.966 61.135 258.801 64.075C260.726 66.035 260.586 68.065 260.586 70.655V73H263.771V70.025C263.771 67.75 264.016 63.76 259.781 61.1C257.156 59.42 254.111 59.49 252.921 59.665L259.326 55.5L257.506 53.05L250.331 57.81V52.945H247.146V73H250.331ZM274.144 73V56.655H279.639V53.505H265.534V56.655H271.029V73H274.144ZM287.274 73C290.039 73 291.894 71.81 292.839 70.34V73H297.984V69.815H295.884V58.545C295.884 56.795 295.149 55.5 293.819 54.695C292.454 53.855 291.369 53.435 289.199 53.435C287.799 53.435 286.014 53.89 284.614 54.8C283.214 55.675 282.444 57.25 282.374 59.525H285.524C285.839 56.76 286.889 56.06 289.864 56.06C290.879 56.06 292.804 56.34 292.804 59.07C292.804 59.595 292.734 60.015 292.594 60.26C292.349 60.785 291.894 61.065 291.159 61.17L287.239 61.8C285.524 62.01 284.124 62.57 283.039 63.515C281.954 64.46 281.394 65.825 281.394 67.54C281.394 69.115 281.954 70.41 283.074 71.425C284.159 72.475 285.559 73 287.274 73ZM287.974 70.34C287.064 70.34 286.294 70.06 285.629 69.57C284.999 69.045 284.649 68.345 284.649 67.435C284.649 66.28 285.139 65.37 286.119 64.845C287.974 63.795 291.544 63.655 292.734 63.375V65.475C292.734 68.415 291.124 70.34 287.974 70.34Z" fill="#47806B"/>
</g>
<g filter="url(#filter1_f_451_54)">
<path d="M60.365 55.78C58.65 53.785 56.445 53.435 54.52 53.435C49.655 53.435 46.75 57.005 46.75 63.27C46.75 66.525 47.485 68.87 48.99 70.305C50.495 71.705 52.21 72.44 54.24 72.44C56.165 72.44 58.825 72.02 60.26 69.885L60.295 77.095H48.29V80H63.445V53.435H60.365V55.78ZM54.625 69.885C51.65 69.885 49.935 68.24 49.935 63.515C49.935 58.09 51.685 56.165 55.08 56.165C58.58 56.165 60.365 58.3 60.365 62.885C60.365 67.96 58.16 69.885 54.625 69.885ZM70.5552 51.055C72.0252 51.055 73.2152 49.865 73.2152 48.395C73.2152 46.925 72.0252 45.735 70.5552 45.735C69.0852 45.735 67.8952 46.925 67.8952 48.395C67.8952 49.865 69.0852 51.055 70.5552 51.055ZM72.2002 53.05H69.0502V69.815H66.9502V73H74.3002V69.815H72.2002V53.05ZM86.8852 69.85H83.6302V55.22H86.8852V52.455H83.6302V46.89H80.4802V52.455H77.7852V55.22H80.4802V73H86.8852V69.85ZM93.6175 73V62.92C93.6175 58.055 96.8725 56.305 99.3225 56.305C101.737 56.305 103.592 57.775 103.592 62.78V73H106.917V62.29C106.917 57.6 104.572 53.435 100.022 53.435C97.5025 53.435 95.7175 53.995 93.6175 56.165V45H90.3975V73H93.6175ZM126.457 53.365H123.307V63.515C123.307 68.38 120.052 70.13 117.777 70.13C115.467 70.13 113.612 68.66 113.612 63.655V53.365H110.427V64.145C110.427 68.835 112.702 73 117.077 73C119.422 73 121.207 72.44 123.307 70.27V73H128.592V69.815H126.457V53.365ZM135.177 73V69.815C137.067 72.335 138.747 73 140.672 73C146.237 73 149.317 68.625 149.317 61.975C149.317 55.15 146.202 51.825 140.952 51.825C139.202 51.825 137.067 52.56 135.352 54.765V45H132.097V73H135.177ZM140.462 70.34C138.852 70.34 137.032 69.255 136.087 67.225C135.457 65.86 135.177 64.04 135.177 62.15C135.177 60.19 135.632 58.37 136.262 57.285C137.312 55.5 139.132 54.485 140.532 54.485C142.352 54.485 143.752 54.905 144.942 57.005C145.677 58.3 145.852 60.015 145.852 62.15C145.852 63.935 145.642 65.685 145.012 66.98C143.962 69.15 141.967 70.34 140.462 70.34ZM179.983 56.585H169.973V73H166.823V53.435H183.133V73H179.983V56.585ZM189.797 80V69.885C191.232 72.02 193.892 72.44 195.397 72.44C197.252 72.44 198.967 71.705 200.472 70.305C201.977 68.87 202.712 66.525 202.712 63.27C202.712 57.005 199.807 53.435 195.117 53.435C193.612 53.435 191.407 53.785 189.692 55.78V53.435H186.647V80H189.797ZM195.012 69.885C192.982 69.885 189.692 67.96 189.692 62.885C189.692 58.3 192.562 56.165 194.557 56.165C196.972 56.165 199.527 58.09 199.527 63.515C199.527 68.24 197.007 69.885 195.012 69.885ZM215.018 73.07C220.513 72.58 223.208 68.1 222.928 62.22C222.613 56.34 219.533 53.015 214.038 53.4C208.648 53.82 205.953 58.265 206.233 63.97C206.548 69.78 209.593 73.455 215.018 73.07ZM215.018 69.955C211.133 70.305 209.208 67.82 209.068 63.83C208.823 59.595 210.573 56.62 214.213 56.34C217.713 56.025 219.778 58.65 219.918 62.5C220.163 66.49 218.658 69.675 215.018 69.955ZM234.867 73C238.962 73 242.952 70.795 242.952 66.595L239.872 66.56C239.872 69.22 237.142 70.305 235.147 70.305C231.822 70.305 229.967 68.835 229.792 64.075H243.652C243.652 62.22 243.547 60.89 243.407 60.015C242.462 55.185 239.172 53.435 235.357 53.435C229.897 53.435 226.467 56.97 226.467 63.48C226.467 69.78 229.757 73 234.867 73ZM229.862 61.625C229.897 57.705 232.557 56.13 235.147 56.13C238.087 56.13 240.467 57.845 240.467 61.625H229.862ZM250.331 73V62.64C250.541 62.57 255.966 61.135 258.801 64.075C260.726 66.035 260.586 68.065 260.586 70.655V73H263.771V70.025C263.771 67.75 264.016 63.76 259.781 61.1C257.156 59.42 254.111 59.49 252.921 59.665L259.326 55.5L257.506 53.05L250.331 57.81V52.945H247.146V73H250.331ZM274.144 73V56.655H279.639V53.505H265.534V56.655H271.029V73H274.144ZM287.274 73C290.039 73 291.894 71.81 292.839 70.34V73H297.984V69.815H295.884V58.545C295.884 56.795 295.149 55.5 293.819 54.695C292.454 53.855 291.369 53.435 289.199 53.435C287.799 53.435 286.014 53.89 284.614 54.8C283.214 55.675 282.444 57.25 282.374 59.525H285.524C285.839 56.76 286.889 56.06 289.864 56.06C290.879 56.06 292.804 56.34 292.804 59.07C292.804 59.595 292.734 60.015 292.594 60.26C292.349 60.785 291.894 61.065 291.159 61.17L287.239 61.8C285.524 62.01 284.124 62.57 283.039 63.515C281.954 64.46 281.394 65.825 281.394 67.54C281.394 69.115 281.954 70.41 283.074 71.425C284.159 72.475 285.559 73 287.274 73ZM287.974 70.34C287.064 70.34 286.294 70.06 285.629 69.57C284.999 69.045 284.649 68.345 284.649 67.435C284.649 66.28 285.139 65.37 286.119 64.845C287.974 63.795 291.544 63.655 292.734 63.375V65.475C292.734 68.415 291.124 70.34 287.974 70.34Z" fill="#47806B"/>
</g>
<g filter="url(#filter2_f_451_54)">
<path d="M60.365 55.78C58.65 53.785 56.445 53.435 54.52 53.435C49.655 53.435 46.75 57.005 46.75 63.27C46.75 66.525 47.485 68.87 48.99 70.305C50.495 71.705 52.21 72.44 54.24 72.44C56.165 72.44 58.825 72.02 60.26 69.885L60.295 77.095H48.29V80H63.445V53.435H60.365V55.78ZM54.625 69.885C51.65 69.885 49.935 68.24 49.935 63.515C49.935 58.09 51.685 56.165 55.08 56.165C58.58 56.165 60.365 58.3 60.365 62.885C60.365 67.96 58.16 69.885 54.625 69.885ZM70.5552 51.055C72.0252 51.055 73.2152 49.865 73.2152 48.395C73.2152 46.925 72.0252 45.735 70.5552 45.735C69.0852 45.735 67.8952 46.925 67.8952 48.395C67.8952 49.865 69.0852 51.055 70.5552 51.055ZM72.2002 53.05H69.0502V69.815H66.9502V73H74.3002V69.815H72.2002V53.05ZM86.8852 69.85H83.6302V55.22H86.8852V52.455H83.6302V46.89H80.4802V52.455H77.7852V55.22H80.4802V73H86.8852V69.85ZM93.6175 73V62.92C93.6175 58.055 96.8725 56.305 99.3225 56.305C101.737 56.305 103.592 57.775 103.592 62.78V73H106.917V62.29C106.917 57.6 104.572 53.435 100.022 53.435C97.5025 53.435 95.7175 53.995 93.6175 56.165V45H90.3975V73H93.6175ZM126.457 53.365H123.307V63.515C123.307 68.38 120.052 70.13 117.777 70.13C115.467 70.13 113.612 68.66 113.612 63.655V53.365H110.427V64.145C110.427 68.835 112.702 73 117.077 73C119.422 73 121.207 72.44 123.307 70.27V73H128.592V69.815H126.457V53.365ZM135.177 73V69.815C137.067 72.335 138.747 73 140.672 73C146.237 73 149.317 68.625 149.317 61.975C149.317 55.15 146.202 51.825 140.952 51.825C139.202 51.825 137.067 52.56 135.352 54.765V45H132.097V73H135.177ZM140.462 70.34C138.852 70.34 137.032 69.255 136.087 67.225C135.457 65.86 135.177 64.04 135.177 62.15C135.177 60.19 135.632 58.37 136.262 57.285C137.312 55.5 139.132 54.485 140.532 54.485C142.352 54.485 143.752 54.905 144.942 57.005C145.677 58.3 145.852 60.015 145.852 62.15C145.852 63.935 145.642 65.685 145.012 66.98C143.962 69.15 141.967 70.34 140.462 70.34ZM179.983 56.585H169.973V73H166.823V53.435H183.133V73H179.983V56.585ZM189.797 80V69.885C191.232 72.02 193.892 72.44 195.397 72.44C197.252 72.44 198.967 71.705 200.472 70.305C201.977 68.87 202.712 66.525 202.712 63.27C202.712 57.005 199.807 53.435 195.117 53.435C193.612 53.435 191.407 53.785 189.692 55.78V53.435H186.647V80H189.797ZM195.012 69.885C192.982 69.885 189.692 67.96 189.692 62.885C189.692 58.3 192.562 56.165 194.557 56.165C196.972 56.165 199.527 58.09 199.527 63.515C199.527 68.24 197.007 69.885 195.012 69.885ZM215.018 73.07C220.513 72.58 223.208 68.1 222.928 62.22C222.613 56.34 219.533 53.015 214.038 53.4C208.648 53.82 205.953 58.265 206.233 63.97C206.548 69.78 209.593 73.455 215.018 73.07ZM215.018 69.955C211.133 70.305 209.208 67.82 209.068 63.83C208.823 59.595 210.573 56.62 214.213 56.34C217.713 56.025 219.778 58.65 219.918 62.5C220.163 66.49 218.658 69.675 215.018 69.955ZM234.867 73C238.962 73 242.952 70.795 242.952 66.595L239.872 66.56C239.872 69.22 237.142 70.305 235.147 70.305C231.822 70.305 229.967 68.835 229.792 64.075H243.652C243.652 62.22 243.547 60.89 243.407 60.015C242.462 55.185 239.172 53.435 235.357 53.435C229.897 53.435 226.467 56.97 226.467 63.48C226.467 69.78 229.757 73 234.867 73ZM229.862 61.625C229.897 57.705 232.557 56.13 235.147 56.13C238.087 56.13 240.467 57.845 240.467 61.625H229.862ZM250.331 73V62.64C250.541 62.57 255.966 61.135 258.801 64.075C260.726 66.035 260.586 68.065 260.586 70.655V73H263.771V70.025C263.771 67.75 264.016 63.76 259.781 61.1C257.156 59.42 254.111 59.49 252.921 59.665L259.326 55.5L257.506 53.05L250.331 57.81V52.945H247.146V73H250.331ZM274.144 73V56.655H279.639V53.505H265.534V56.655H271.029V73H274.144ZM287.274 73C290.039 73 291.894 71.81 292.839 70.34V73H297.984V69.815H295.884V58.545C295.884 56.795 295.149 55.5 293.819 54.695C292.454 53.855 291.369 53.435 289.199 53.435C287.799 53.435 286.014 53.89 284.614 54.8C283.214 55.675 282.444 57.25 282.374 59.525H285.524C285.839 56.76 286.889 56.06 289.864 56.06C290.879 56.06 292.804 56.34 292.804 59.07C292.804 59.595 292.734 60.015 292.594 60.26C292.349 60.785 291.894 61.065 291.159 61.17L287.239 61.8C285.524 62.01 284.124 62.57 283.039 63.515C281.954 64.46 281.394 65.825 281.394 67.54C281.394 69.115 281.954 70.41 283.074 71.425C284.159 72.475 285.559 73 287.274 73ZM287.974 70.34C287.064 70.34 286.294 70.06 285.629 69.57C284.999 69.045 284.649 68.345 284.649 67.435C284.649 66.28 285.139 65.37 286.119 64.845C287.974 63.795 291.544 63.655 292.734 63.375V65.475C292.734 68.415 291.124 70.34 287.974 70.34Z" fill="#47806B"/>
</g>
<g filter="url(#filter3_f_451_54)">
<path d="M60.365 55.78C58.65 53.785 56.445 53.435 54.52 53.435C49.655 53.435 46.75 57.005 46.75 63.27C46.75 66.525 47.485 68.87 48.99 70.305C50.495 71.705 52.21 72.44 54.24 72.44C56.165 72.44 58.825 72.02 60.26 69.885L60.295 77.095H48.29V80H63.445V53.435H60.365V55.78ZM54.625 69.885C51.65 69.885 49.935 68.24 49.935 63.515C49.935 58.09 51.685 56.165 55.08 56.165C58.58 56.165 60.365 58.3 60.365 62.885C60.365 67.96 58.16 69.885 54.625 69.885ZM70.5552 51.055C72.0252 51.055 73.2152 49.865 73.2152 48.395C73.2152 46.925 72.0252 45.735 70.5552 45.735C69.0852 45.735 67.8952 46.925 67.8952 48.395C67.8952 49.865 69.0852 51.055 70.5552 51.055ZM72.2002 53.05H69.0502V69.815H66.9502V73H74.3002V69.815H72.2002V53.05ZM86.8852 69.85H83.6302V55.22H86.8852V52.455H83.6302V46.89H80.4802V52.455H77.7852V55.22H80.4802V73H86.8852V69.85ZM93.6175 73V62.92C93.6175 58.055 96.8725 56.305 99.3225 56.305C101.737 56.305 103.592 57.775 103.592 62.78V73H106.917V62.29C106.917 57.6 104.572 53.435 100.022 53.435C97.5025 53.435 95.7175 53.995 93.6175 56.165V45H90.3975V73H93.6175ZM126.457 53.365H123.307V63.515C123.307 68.38 120.052 70.13 117.777 70.13C115.467 70.13 113.612 68.66 113.612 63.655V53.365H110.427V64.145C110.427 68.835 112.702 73 117.077 73C119.422 73 121.207 72.44 123.307 70.27V73H128.592V69.815H126.457V53.365ZM135.177 73V69.815C137.067 72.335 138.747 73 140.672 73C146.237 73 149.317 68.625 149.317 61.975C149.317 55.15 146.202 51.825 140.952 51.825C139.202 51.825 137.067 52.56 135.352 54.765V45H132.097V73H135.177ZM140.462 70.34C138.852 70.34 137.032 69.255 136.087 67.225C135.457 65.86 135.177 64.04 135.177 62.15C135.177 60.19 135.632 58.37 136.262 57.285C137.312 55.5 139.132 54.485 140.532 54.485C142.352 54.485 143.752 54.905 144.942 57.005C145.677 58.3 145.852 60.015 145.852 62.15C145.852 63.935 145.642 65.685 145.012 66.98C143.962 69.15 141.967 70.34 140.462 70.34ZM179.983 56.585H169.973V73H166.823V53.435H183.133V73H179.983V56.585ZM189.797 80V69.885C191.232 72.02 193.892 72.44 195.397 72.44C197.252 72.44 198.967 71.705 200.472 70.305C201.977 68.87 202.712 66.525 202.712 63.27C202.712 57.005 199.807 53.435 195.117 53.435C193.612 53.435 191.407 53.785 189.692 55.78V53.435H186.647V80H189.797ZM195.012 69.885C192.982 69.885 189.692 67.96 189.692 62.885C189.692 58.3 192.562 56.165 194.557 56.165C196.972 56.165 199.527 58.09 199.527 63.515C199.527 68.24 197.007 69.885 195.012 69.885ZM215.018 73.07C220.513 72.58 223.208 68.1 222.928 62.22C222.613 56.34 219.533 53.015 214.038 53.4C208.648 53.82 205.953 58.265 206.233 63.97C206.548 69.78 209.593 73.455 215.018 73.07ZM215.018 69.955C211.133 70.305 209.208 67.82 209.068 63.83C208.823 59.595 210.573 56.62 214.213 56.34C217.713 56.025 219.778 58.65 219.918 62.5C220.163 66.49 218.658 69.675 215.018 69.955ZM234.867 73C238.962 73 242.952 70.795 242.952 66.595L239.872 66.56C239.872 69.22 237.142 70.305 235.147 70.305C231.822 70.305 229.967 68.835 229.792 64.075H243.652C243.652 62.22 243.547 60.89 243.407 60.015C242.462 55.185 239.172 53.435 235.357 53.435C229.897 53.435 226.467 56.97 226.467 63.48C226.467 69.78 229.757 73 234.867 73ZM229.862 61.625C229.897 57.705 232.557 56.13 235.147 56.13C238.087 56.13 240.467 57.845 240.467 61.625H229.862ZM250.331 73V62.64C250.541 62.57 255.966 61.135 258.801 64.075C260.726 66.035 260.586 68.065 260.586 70.655V73H263.771V70.025C263.771 67.75 264.016 63.76 259.781 61.1C257.156 59.42 254.111 59.49 252.921 59.665L259.326 55.5L257.506 53.05L250.331 57.81V52.945H247.146V73H250.331ZM274.144 73V56.655H279.639V53.505H265.534V56.655H271.029V73H274.144ZM287.274 73C290.039 73 291.894 71.81 292.839 70.34V73H297.984V69.815H295.884V58.545C295.884 56.795 295.149 55.5 293.819 54.695C292.454 53.855 291.369 53.435 289.199 53.435C287.799 53.435 286.014 53.89 284.614 54.8C283.214 55.675 282.444 57.25 282.374 59.525H285.524C285.839 56.76 286.889 56.06 289.864 56.06C290.879 56.06 292.804 56.34 292.804 59.07C292.804 59.595 292.734 60.015 292.594 60.26C292.349 60.785 291.894 61.065 291.159 61.17L287.239 61.8C285.524 62.01 284.124 62.57 283.039 63.515C281.954 64.46 281.394 65.825 281.394 67.54C281.394 69.115 281.954 70.41 283.074 71.425C284.159 72.475 285.559 73 287.274 73ZM287.974 70.34C287.064 70.34 286.294 70.06 285.629 69.57C284.999 69.045 284.649 68.345 284.649 67.435C284.649 66.28 285.139 65.37 286.119 64.845C287.974 63.795 291.544 63.655 292.734 63.375V65.475C292.734 68.415 291.124 70.34 287.974 70.34Z" fill="#47806B"/>
</g>
<g filter="url(#filter4_f_451_54)">
<path d="M60.365 55.78C58.65 53.785 56.445 53.435 54.52 53.435C49.655 53.435 46.75 57.005 46.75 63.27C46.75 66.525 47.485 68.87 48.99 70.305C50.495 71.705 52.21 72.44 54.24 72.44C56.165 72.44 58.825 72.02 60.26 69.885L60.295 77.095H48.29V80H63.445V53.435H60.365V55.78ZM54.625 69.885C51.65 69.885 49.935 68.24 49.935 63.515C49.935 58.09 51.685 56.165 55.08 56.165C58.58 56.165 60.365 58.3 60.365 62.885C60.365 67.96 58.16 69.885 54.625 69.885ZM70.5552 51.055C72.0252 51.055 73.2152 49.865 73.2152 48.395C73.2152 46.925 72.0252 45.735 70.5552 45.735C69.0852 45.735 67.8952 46.925 67.8952 48.395C67.8952 49.865 69.0852 51.055 70.5552 51.055ZM72.2002 53.05H69.0502V69.815H66.9502V73H74.3002V69.815H72.2002V53.05ZM86.8852 69.85H83.6302V55.22H86.8852V52.455H83.6302V46.89H80.4802V52.455H77.7852V55.22H80.4802V73H86.8852V69.85ZM93.6175 73V62.92C93.6175 58.055 96.8725 56.305 99.3225 56.305C101.737 56.305 103.592 57.775 103.592 62.78V73H106.917V62.29C106.917 57.6 104.572 53.435 100.022 53.435C97.5025 53.435 95.7175 53.995 93.6175 56.165V45H90.3975V73H93.6175ZM126.457 53.365H123.307V63.515C123.307 68.38 120.052 70.13 117.777 70.13C115.467 70.13 113.612 68.66 113.612 63.655V53.365H110.427V64.145C110.427 68.835 112.702 73 117.077 73C119.422 73 121.207 72.44 123.307 70.27V73H128.592V69.815H126.457V53.365ZM135.177 73V69.815C137.067 72.335 138.747 73 140.672 73C146.237 73 149.317 68.625 149.317 61.975C149.317 55.15 146.202 51.825 140.952 51.825C139.202 51.825 137.067 52.56 135.352 54.765V45H132.097V73H135.177ZM140.462 70.34C138.852 70.34 137.032 69.255 136.087 67.225C135.457 65.86 135.177 64.04 135.177 62.15C135.177 60.19 135.632 58.37 136.262 57.285C137.312 55.5 139.132 54.485 140.532 54.485C142.352 54.485 143.752 54.905 144.942 57.005C145.677 58.3 145.852 60.015 145.852 62.15C145.852 63.935 145.642 65.685 145.012 66.98C143.962 69.15 141.967 70.34 140.462 70.34ZM179.983 56.585H169.973V73H166.823V53.435H183.133V73H179.983V56.585ZM189.797 80V69.885C191.232 72.02 193.892 72.44 195.397 72.44C197.252 72.44 198.967 71.705 200.472 70.305C201.977 68.87 202.712 66.525 202.712 63.27C202.712 57.005 199.807 53.435 195.117 53.435C193.612 53.435 191.407 53.785 189.692 55.78V53.435H186.647V80H189.797ZM195.012 69.885C192.982 69.885 189.692 67.96 189.692 62.885C189.692 58.3 192.562 56.165 194.557 56.165C196.972 56.165 199.527 58.09 199.527 63.515C199.527 68.24 197.007 69.885 195.012 69.885ZM215.018 73.07C220.513 72.58 223.208 68.1 222.928 62.22C222.613 56.34 219.533 53.015 214.038 53.4C208.648 53.82 205.953 58.265 206.233 63.97C206.548 69.78 209.593 73.455 215.018 73.07ZM215.018 69.955C211.133 70.305 209.208 67.82 209.068 63.83C208.823 59.595 210.573 56.62 214.213 56.34C217.713 56.025 219.778 58.65 219.918 62.5C220.163 66.49 218.658 69.675 215.018 69.955ZM234.867 73C238.962 73 242.952 70.795 242.952 66.595L239.872 66.56C239.872 69.22 237.142 70.305 235.147 70.305C231.822 70.305 229.967 68.835 229.792 64.075H243.652C243.652 62.22 243.547 60.89 243.407 60.015C242.462 55.185 239.172 53.435 235.357 53.435C229.897 53.435 226.467 56.97 226.467 63.48C226.467 69.78 229.757 73 234.867 73ZM229.862 61.625C229.897 57.705 232.557 56.13 235.147 56.13C238.087 56.13 240.467 57.845 240.467 61.625H229.862ZM250.331 73V62.64C250.541 62.57 255.966 61.135 258.801 64.075C260.726 66.035 260.586 68.065 260.586 70.655V73H263.771V70.025C263.771 67.75 264.016 63.76 259.781 61.1C257.156 59.42 254.111 59.49 252.921 59.665L259.326 55.5L257.506 53.05L250.331 57.81V52.945H247.146V73H250.331ZM274.144 73V56.655H279.639V53.505H265.534V56.655H271.029V73H274.144ZM287.274 73C290.039 73 291.894 71.81 292.839 70.34V73H297.984V69.815H295.884V58.545C295.884 56.795 295.149 55.5 293.819 54.695C292.454 53.855 291.369 53.435 289.199 53.435C287.799 53.435 286.014 53.89 284.614 54.8C283.214 55.675 282.444 57.25 282.374 59.525H285.524C285.839 56.76 286.889 56.06 289.864 56.06C290.879 56.06 292.804 56.34 292.804 59.07C292.804 59.595 292.734 60.015 292.594 60.26C292.349 60.785 291.894 61.065 291.159 61.17L287.239 61.8C285.524 62.01 284.124 62.57 283.039 63.515C281.954 64.46 281.394 65.825 281.394 67.54C281.394 69.115 281.954 70.41 283.074 71.425C284.159 72.475 285.559 73 287.274 73ZM287.974 70.34C287.064 70.34 286.294 70.06 285.629 69.57C284.999 69.045 284.649 68.345 284.649 67.435C284.649 66.28 285.139 65.37 286.119 64.845C287.974 63.795 291.544 63.655 292.734 63.375V65.475C292.734 68.415 291.124 70.34 287.974 70.34Z" fill="#47806B"/>
</g>
<g filter="url(#filter5_f_451_54)">
<path d="M60.365 55.78C58.65 53.785 56.445 53.435 54.52 53.435C49.655 53.435 46.75 57.005 46.75 63.27C46.75 66.525 47.485 68.87 48.99 70.305C50.495 71.705 52.21 72.44 54.24 72.44C56.165 72.44 58.825 72.02 60.26 69.885L60.295 77.095H48.29V80H63.445V53.435H60.365V55.78ZM54.625 69.885C51.65 69.885 49.935 68.24 49.935 63.515C49.935 58.09 51.685 56.165 55.08 56.165C58.58 56.165 60.365 58.3 60.365 62.885C60.365 67.96 58.16 69.885 54.625 69.885ZM70.5552 51.055C72.0252 51.055 73.2152 49.865 73.2152 48.395C73.2152 46.925 72.0252 45.735 70.5552 45.735C69.0852 45.735 67.8952 46.925 67.8952 48.395C67.8952 49.865 69.0852 51.055 70.5552 51.055ZM72.2002 53.05H69.0502V69.815H66.9502V73H74.3002V69.815H72.2002V53.05ZM86.8852 69.85H83.6302V55.22H86.8852V52.455H83.6302V46.89H80.4802V52.455H77.7852V55.22H80.4802V73H86.8852V69.85ZM93.6175 73V62.92C93.6175 58.055 96.8725 56.305 99.3225 56.305C101.737 56.305 103.592 57.775 103.592 62.78V73H106.917V62.29C106.917 57.6 104.572 53.435 100.022 53.435C97.5025 53.435 95.7175 53.995 93.6175 56.165V45H90.3975V73H93.6175ZM126.457 53.365H123.307V63.515C123.307 68.38 120.052 70.13 117.777 70.13C115.467 70.13 113.612 68.66 113.612 63.655V53.365H110.427V64.145C110.427 68.835 112.702 73 117.077 73C119.422 73 121.207 72.44 123.307 70.27V73H128.592V69.815H126.457V53.365ZM135.177 73V69.815C137.067 72.335 138.747 73 140.672 73C146.237 73 149.317 68.625 149.317 61.975C149.317 55.15 146.202 51.825 140.952 51.825C139.202 51.825 137.067 52.56 135.352 54.765V45H132.097V73H135.177ZM140.462 70.34C138.852 70.34 137.032 69.255 136.087 67.225C135.457 65.86 135.177 64.04 135.177 62.15C135.177 60.19 135.632 58.37 136.262 57.285C137.312 55.5 139.132 54.485 140.532 54.485C142.352 54.485 143.752 54.905 144.942 57.005C145.677 58.3 145.852 60.015 145.852 62.15C145.852 63.935 145.642 65.685 145.012 66.98C143.962 69.15 141.967 70.34 140.462 70.34ZM179.983 56.585H169.973V73H166.823V53.435H183.133V73H179.983V56.585ZM189.797 80V69.885C191.232 72.02 193.892 72.44 195.397 72.44C197.252 72.44 198.967 71.705 200.472 70.305C201.977 68.87 202.712 66.525 202.712 63.27C202.712 57.005 199.807 53.435 195.117 53.435C193.612 53.435 191.407 53.785 189.692 55.78V53.435H186.647V80H189.797ZM195.012 69.885C192.982 69.885 189.692 67.96 189.692 62.885C189.692 58.3 192.562 56.165 194.557 56.165C196.972 56.165 199.527 58.09 199.527 63.515C199.527 68.24 197.007 69.885 195.012 69.885ZM215.018 73.07C220.513 72.58 223.208 68.1 222.928 62.22C222.613 56.34 219.533 53.015 214.038 53.4C208.648 53.82 205.953 58.265 206.233 63.97C206.548 69.78 209.593 73.455 215.018 73.07ZM215.018 69.955C211.133 70.305 209.208 67.82 209.068 63.83C208.823 59.595 210.573 56.62 214.213 56.34C217.713 56.025 219.778 58.65 219.918 62.5C220.163 66.49 218.658 69.675 215.018 69.955ZM234.867 73C238.962 73 242.952 70.795 242.952 66.595L239.872 66.56C239.872 69.22 237.142 70.305 235.147 70.305C231.822 70.305 229.967 68.835 229.792 64.075H243.652C243.652 62.22 243.547 60.89 243.407 60.015C242.462 55.185 239.172 53.435 235.357 53.435C229.897 53.435 226.467 56.97 226.467 63.48C226.467 69.78 229.757 73 234.867 73ZM229.862 61.625C229.897 57.705 232.557 56.13 235.147 56.13C238.087 56.13 240.467 57.845 240.467 61.625H229.862ZM250.331 73V62.64C250.541 62.57 255.966 61.135 258.801 64.075C260.726 66.035 260.586 68.065 260.586 70.655V73H263.771V70.025C263.771 67.75 264.016 63.76 259.781 61.1C257.156 59.42 254.111 59.49 252.921 59.665L259.326 55.5L257.506 53.05L250.331 57.81V52.945H247.146V73H250.331ZM274.144 73V56.655H279.639V53.505H265.534V56.655H271.029V73H274.144ZM287.274 73C290.039 73 291.894 71.81 292.839 70.34V73H297.984V69.815H295.884V58.545C295.884 56.795 295.149 55.5 293.819 54.695C292.454 53.855 291.369 53.435 289.199 53.435C287.799 53.435 286.014 53.89 284.614 54.8C283.214 55.675 282.444 57.25 282.374 59.525H285.524C285.839 56.76 286.889 56.06 289.864 56.06C290.879 56.06 292.804 56.34 292.804 59.07C292.804 59.595 292.734 60.015 292.594 60.26C292.349 60.785 291.894 61.065 291.159 61.17L287.239 61.8C285.524 62.01 284.124 62.57 283.039 63.515C281.954 64.46 281.394 65.825 281.394 67.54C281.394 69.115 281.954 70.41 283.074 71.425C284.159 72.475 285.559 73 287.274 73ZM287.974 70.34C287.064 70.34 286.294 70.06 285.629 69.57C284.999 69.045 284.649 68.345 284.649 67.435C284.649 66.28 285.139 65.37 286.119 64.845C287.974 63.795 291.544 63.655 292.734 63.375V65.475C292.734 68.415 291.124 70.34 287.974 70.34Z" fill="#47806B"/>
</g>
<path d="M60.365 55.78C58.65 53.785 56.445 53.435 54.52 53.435C49.655 53.435 46.75 57.005 46.75 63.27C46.75 66.525 47.485 68.87 48.99 70.305C50.495 71.705 52.21 72.44 54.24 72.44C56.165 72.44 58.825 72.02 60.26 69.885L60.295 77.095H48.29V80H63.445V53.435H60.365V55.78ZM54.625 69.885C51.65 69.885 49.935 68.24 49.935 63.515C49.935 58.09 51.685 56.165 55.08 56.165C58.58 56.165 60.365 58.3 60.365 62.885C60.365 67.96 58.16 69.885 54.625 69.885ZM70.5552 51.055C72.0252 51.055 73.2152 49.865 73.2152 48.395C73.2152 46.925 72.0252 45.735 70.5552 45.735C69.0852 45.735 67.8952 46.925 67.8952 48.395C67.8952 49.865 69.0852 51.055 70.5552 51.055ZM72.2002 53.05H69.0502V69.815H66.9502V73H74.3002V69.815H72.2002V53.05ZM86.8852 69.85H83.6302V55.22H86.8852V52.455H83.6302V46.89H80.4802V52.455H77.7852V55.22H80.4802V73H86.8852V69.85ZM93.6175 73V62.92C93.6175 58.055 96.8725 56.305 99.3225 56.305C101.737 56.305 103.592 57.775 103.592 62.78V73H106.917V62.29C106.917 57.6 104.572 53.435 100.022 53.435C97.5025 53.435 95.7175 53.995 93.6175 56.165V45H90.3975V73H93.6175ZM126.457 53.365H123.307V63.515C123.307 68.38 120.052 70.13 117.777 70.13C115.467 70.13 113.612 68.66 113.612 63.655V53.365H110.427V64.145C110.427 68.835 112.702 73 117.077 73C119.422 73 121.207 72.44 123.307 70.27V73H128.592V69.815H126.457V53.365ZM135.177 73V69.815C137.067 72.335 138.747 73 140.672 73C146.237 73 149.317 68.625 149.317 61.975C149.317 55.15 146.202 51.825 140.952 51.825C139.202 51.825 137.067 52.56 135.352 54.765V45H132.097V73H135.177ZM140.462 70.34C138.852 70.34 137.032 69.255 136.087 67.225C135.457 65.86 135.177 64.04 135.177 62.15C135.177 60.19 135.632 58.37 136.262 57.285C137.312 55.5 139.132 54.485 140.532 54.485C142.352 54.485 143.752 54.905 144.942 57.005C145.677 58.3 145.852 60.015 145.852 62.15C145.852 63.935 145.642 65.685 145.012 66.98C143.962 69.15 141.967 70.34 140.462 70.34ZM179.983 56.585H169.973V73H166.823V53.435H183.133V73H179.983V56.585ZM189.797 80V69.885C191.232 72.02 193.892 72.44 195.397 72.44C197.252 72.44 198.967 71.705 200.472 70.305C201.977 68.87 202.712 66.525 202.712 63.27C202.712 57.005 199.807 53.435 195.117 53.435C193.612 53.435 191.407 53.785 189.692 55.78V53.435H186.647V80H189.797ZM195.012 69.885C192.982 69.885 189.692 67.96 189.692 62.885C189.692 58.3 192.562 56.165 194.557 56.165C196.972 56.165 199.527 58.09 199.527 63.515C199.527 68.24 197.007 69.885 195.012 69.885ZM215.018 73.07C220.513 72.58 223.208 68.1 222.928 62.22C222.613 56.34 219.533 53.015 214.038 53.4C208.648 53.82 205.953 58.265 206.233 63.97C206.548 69.78 209.593 73.455 215.018 73.07ZM215.018 69.955C211.133 70.305 209.208 67.82 209.068 63.83C208.823 59.595 210.573 56.62 214.213 56.34C217.713 56.025 219.778 58.65 219.918 62.5C220.163 66.49 218.658 69.675 215.018 69.955ZM234.867 73C238.962 73 242.952 70.795 242.952 66.595L239.872 66.56C239.872 69.22 237.142 70.305 235.147 70.305C231.822 70.305 229.967 68.835 229.792 64.075H243.652C243.652 62.22 243.547 60.89 243.407 60.015C242.462 55.185 239.172 53.435 235.357 53.435C229.897 53.435 226.467 56.97 226.467 63.48C226.467 69.78 229.757 73 234.867 73ZM229.862 61.625C229.897 57.705 232.557 56.13 235.147 56.13C238.087 56.13 240.467 57.845 240.467 61.625H229.862ZM250.331 73V62.64C250.541 62.57 255.966 61.135 258.801 64.075C260.726 66.035 260.586 68.065 260.586 70.655V73H263.771V70.025C263.771 67.75 264.016 63.76 259.781 61.1C257.156 59.42 254.111 59.49 252.921 59.665L259.326 55.5L257.506 53.05L250.331 57.81V52.945H247.146V73H250.331ZM274.144 73V56.655H279.639V53.505H265.534V56.655H271.029V73H274.144ZM287.274 73C290.039 73 291.894 71.81 292.839 70.34V73H297.984V69.815H295.884V58.545C295.884 56.795 295.149 55.5 293.819 54.695C292.454 53.855 291.369 53.435 289.199 53.435C287.799 53.435 286.014 53.89 284.614 54.8C283.214 55.675 282.444 57.25 282.374 59.525H285.524C285.839 56.76 286.889 56.06 289.864 56.06C290.879 56.06 292.804 56.34 292.804 59.07C292.804 59.595 292.734 60.015 292.594 60.26C292.349 60.785 291.894 61.065 291.159 61.17L287.239 61.8C285.524 62.01 284.124 62.57 283.039 63.515C281.954 64.46 281.394 65.825 281.394 67.54C281.394 69.115 281.954 70.41 283.074 71.425C284.159 72.475 285.559 73 287.274 73ZM287.974 70.34C287.064 70.34 286.294 70.06 285.629 69.57C284.999 69.045 284.649 68.345 284.649 67.435C284.649 66.28 285.139 65.37 286.119 64.845C287.974 63.795 291.544 63.655 292.734 63.375V65.475C292.734 68.415 291.124 70.34 287.974 70.34Z" fill="black"/>
<defs>
<filter id="filter0_f_451_54" x="1.75" y="0" width="341.234" height="125" filterUnits="userSpaceOnUse" color-interpolation-filters="sRGB">
<feFlood flood-opacity="0" result="BackgroundImageFix"/>
<feBlend mode="normal" in="SourceGraphic" in2="BackgroundImageFix" result="shape"/>
<feGaussianBlur stdDeviation="22.5" result="effect1_foregroundBlur_451_54"/>
</filter>
<filter id="filter1_f_451_54" x="1.75" y="0" width="341.234" height="125" filterUnits="userSpaceOnUse" color-interpolation-filters="sRGB">
<feFlood flood-opacity="0" result="BackgroundImageFix"/>
<feBlend mode="normal" in="SourceGraphic" in2="BackgroundImageFix" result="shape"/>
<feGaussianBlur stdDeviation="22.5" result="effect1_foregroundBlur_451_54"/>
</filter>
<filter id="filter2_f_451_54" x="1.75" y="0" width="341.234" height="125" filterUnits="userSpaceOnUse" color-interpolation-filters="sRGB">
<feFlood flood-opacity="0" result="BackgroundImageFix"/>
<feBlend mode="normal" in="SourceGraphic" in2="BackgroundImageFix" result="shape"/>
<feGaussianBlur stdDeviation="22.5" result="effect1_foregroundBlur_451_54"/>
</filter>
<filter id="filter3_f_451_54" x="1.75" y="0" width="341.234" height="125" filterUnits="userSpaceOnUse" color-interpolation-filters="sRGB">
<feFlood flood-opacity="0" result="BackgroundImageFix"/>
<feBlend mode="normal" in="SourceGraphic" in2="BackgroundImageFix" result="shape"/>
<feGaussianBlur stdDeviation="22.5" result="effect1_foregroundBlur_451_54"/>
</filter>
<filter id="filter4_f_451_54" x="1.75" y="0" width="341.234" height="125" filterUnits="userSpaceOnUse" color-interpolation-filters="sRGB">
<feFlood flood-opacity="0" result="BackgroundImageFix"/>
<feBlend mode="normal" in="SourceGraphic" in2="BackgroundImageFix" result="shape"/>
<feGaussianBlur stdDeviation="22.5" result="effect1_foregroundBlur_451_54"/>
</filter>
<filter id="filter5_f_451_54" x="1.75" y="0" width="341.234" height="125" filterUnits="userSpaceOnUse" color-interpolation-filters="sRGB">
<feFlood flood-opacity="0" result="BackgroundImageFix"/>
<feBlend mode="normal" in="SourceGraphic" in2="BackgroundImageFix" result="shape"/>
<feGaussianBlur stdDeviation="22.5" result="effect1_foregroundBlur_451_54"/>
</filter>
</defs>
</svg>
