<svg width="428" height="119" viewBox="0 0 428 119" fill="none" xmlns="http://www.w3.org/2000/svg">
<path d="M116.04 48.115L114.57 45L102.46 50.04V45H98.75V73H102.46V53.89L114.955 73L118.28 71.075L105.96 52.42L116.04 48.115ZM128.864 73.07C134.359 72.58 137.054 68.1 136.774 62.22C136.459 56.34 133.379 53.015 127.884 53.4C122.494 53.82 119.799 58.265 120.079 63.97C120.394 69.78 123.439 73.455 128.864 73.07ZM128.864 69.955C124.979 70.305 123.054 67.82 122.914 63.83C122.669 59.595 124.419 56.62 128.059 56.34C131.559 56.025 133.624 58.65 133.764 62.5C134.009 66.49 132.504 69.675 128.864 69.955ZM148.888 73.175C152.598 72.93 155.923 70.34 156.273 65.475H153.158C152.948 68.45 151.198 70.235 149.133 70.375C145.143 70.83 143.323 67.75 143.253 63.76C143.148 59.315 144.933 56.235 148.923 56.165C151.513 56.095 152.633 56.9 153.263 59.665H156.133C155.748 55.57 153.088 53.33 148.888 53.47C143.253 53.61 140.208 57.88 140.313 63.305C140.453 68.1 142.763 73.595 148.888 73.175ZM167.687 73V56.655H173.182V53.505H159.077V56.655H164.572V73H167.687ZM191.415 53.435H182.98C179.13 53.435 176.68 55.045 176.68 58.755C176.68 60.89 177.555 62.395 179.41 63.41C177.695 64.145 177.135 64.705 177.065 67.085V73H180.215L180.285 68.065C180.32 65.86 181.3 65.125 183.995 65.125H188.265V73H191.415V53.435ZM183.96 62.395C181.335 62.395 180.075 61.38 180.075 59C180.075 57.495 181.23 56.48 183.645 56.48H188.265V62.395H183.96ZM227.04 60.085C226.235 58.965 225.115 58.195 223.68 57.81C224.59 57.425 225.29 56.935 225.85 56.27C226.76 55.255 227.215 53.89 227.215 52.21C227.215 49.865 226.445 48.08 224.94 46.855C223.4 45.63 221.265 45 218.465 45C214.72 45 212.27 46.26 210.87 48.815C210.065 50.215 209.645 51.965 209.645 53.995H213.075C213.145 52.42 213.425 51.23 213.915 50.39C214.79 48.885 216.365 48.115 218.885 48.115C220.18 48.115 221.265 48.465 222.21 49.2C223.155 49.935 223.645 50.985 223.645 52.35C223.645 54.17 222.945 55.43 221.475 56.13C220.67 56.55 219.585 56.76 218.325 56.76H213.81V59.665H218.045C220.075 59.665 221.685 60.015 222.84 60.785C223.995 61.52 224.555 62.85 224.555 64.705C224.555 66.245 223.995 67.47 222.91 68.45C221.825 69.395 220.39 69.885 218.57 69.885C216.015 69.885 214.405 69.185 213.495 67.75C213.005 66.945 212.655 65.685 212.515 63.9H208.945C208.945 66.455 209.68 68.59 211.15 70.34C212.585 72.125 214.93 73 218.395 73C221.545 73 223.96 72.195 225.675 70.55C227.39 68.905 228.265 66.805 228.265 64.18C228.265 62.57 227.845 61.205 227.04 60.085ZM237.657 73C240.422 73 242.277 71.81 243.222 70.34V73H248.367V69.815H246.267V58.545C246.267 56.795 245.532 55.5 244.202 54.695C242.837 53.855 241.752 53.435 239.582 53.435C238.182 53.435 236.397 53.89 234.997 54.8C233.597 55.675 232.827 57.25 232.757 59.525H235.907C236.222 56.76 237.272 56.06 240.247 56.06C241.262 56.06 243.187 56.34 243.187 59.07C243.187 59.595 243.117 60.015 242.977 60.26C242.732 60.785 242.277 61.065 241.542 61.17L237.622 61.8C235.907 62.01 234.507 62.57 233.422 63.515C232.337 64.46 231.777 65.825 231.777 67.54C231.777 69.115 232.337 70.41 233.457 71.425C234.542 72.475 235.942 73 237.657 73ZM238.357 70.34C237.447 70.34 236.677 70.06 236.012 69.57C235.382 69.045 235.032 68.345 235.032 67.435C235.032 66.28 235.522 65.37 236.502 64.845C238.357 63.795 241.927 63.655 243.117 63.375V65.475C243.117 68.415 241.507 70.34 238.357 70.34ZM259.61 51.755C262.97 51.755 265.77 49.865 265.77 46.715H262.48C262.165 48.57 261.535 49.41 259.61 49.41C258.105 49.41 257.125 48.325 256.88 46.715H253.59C253.73 49.97 256.39 51.755 259.61 51.755ZM255.025 67.225V53.435H251.875V73H254.85L264.755 57.88L264.79 73H267.94V53.435H264.37L255.025 67.225ZM287.701 53.435H284.551V69.85H274.576V53.435H271.426V73H290.851V69.85H287.701V53.435ZM301.701 73C305.796 73 309.786 70.795 309.786 66.595L306.706 66.56C306.706 69.22 303.976 70.305 301.981 70.305C298.656 70.305 296.801 68.835 296.626 64.075H310.486C310.486 62.22 310.381 60.89 310.241 60.015C309.296 55.185 306.006 53.435 302.191 53.435C296.731 53.435 293.301 56.97 293.301 63.48C293.301 69.78 296.591 73 301.701 73ZM296.696 61.625C296.731 57.705 299.391 56.13 301.981 56.13C304.921 56.13 307.301 57.845 307.301 61.625H296.696ZM321.154 73C323.919 73 325.459 72.685 326.929 70.97C328.679 68.975 328.644 65.195 327.174 63.48C326.404 62.535 325.179 61.765 322.904 62.115C328.994 60.89 328.014 53.435 322.239 53.435H313.979V73H321.154ZM317.059 55.675C320.874 55.675 324.024 55.22 324.024 57.915C324.024 59.77 322.869 60.82 317.724 60.715H317.059V55.675ZM317.059 63.725L322.099 63.83C323.359 63.865 324.234 64.04 324.759 64.565C325.984 65.825 325.704 68.135 325.004 69.15C324.164 70.375 322.449 70.48 321.469 70.48H317.059V63.725Z" fill="#B2E8D4"/>
<g filter="url(#filter0_f_448_36)">
<path d="M116.04 48.115L114.57 45L102.46 50.04V45H98.75V73H102.46V53.89L114.955 73L118.28 71.075L105.96 52.42L116.04 48.115ZM128.864 73.07C134.359 72.58 137.054 68.1 136.774 62.22C136.459 56.34 133.379 53.015 127.884 53.4C122.494 53.82 119.799 58.265 120.079 63.97C120.394 69.78 123.439 73.455 128.864 73.07ZM128.864 69.955C124.979 70.305 123.054 67.82 122.914 63.83C122.669 59.595 124.419 56.62 128.059 56.34C131.559 56.025 133.624 58.65 133.764 62.5C134.009 66.49 132.504 69.675 128.864 69.955ZM148.888 73.175C152.598 72.93 155.923 70.34 156.273 65.475H153.158C152.948 68.45 151.198 70.235 149.133 70.375C145.143 70.83 143.323 67.75 143.253 63.76C143.148 59.315 144.933 56.235 148.923 56.165C151.513 56.095 152.633 56.9 153.263 59.665H156.133C155.748 55.57 153.088 53.33 148.888 53.47C143.253 53.61 140.208 57.88 140.313 63.305C140.453 68.1 142.763 73.595 148.888 73.175ZM167.687 73V56.655H173.182V53.505H159.077V56.655H164.572V73H167.687ZM191.415 53.435H182.98C179.13 53.435 176.68 55.045 176.68 58.755C176.68 60.89 177.555 62.395 179.41 63.41C177.695 64.145 177.135 64.705 177.065 67.085V73H180.215L180.285 68.065C180.32 65.86 181.3 65.125 183.995 65.125H188.265V73H191.415V53.435ZM183.96 62.395C181.335 62.395 180.075 61.38 180.075 59C180.075 57.495 181.23 56.48 183.645 56.48H188.265V62.395H183.96ZM227.04 60.085C226.235 58.965 225.115 58.195 223.68 57.81C224.59 57.425 225.29 56.935 225.85 56.27C226.76 55.255 227.215 53.89 227.215 52.21C227.215 49.865 226.445 48.08 224.94 46.855C223.4 45.63 221.265 45 218.465 45C214.72 45 212.27 46.26 210.87 48.815C210.065 50.215 209.645 51.965 209.645 53.995H213.075C213.145 52.42 213.425 51.23 213.915 50.39C214.79 48.885 216.365 48.115 218.885 48.115C220.18 48.115 221.265 48.465 222.21 49.2C223.155 49.935 223.645 50.985 223.645 52.35C223.645 54.17 222.945 55.43 221.475 56.13C220.67 56.55 219.585 56.76 218.325 56.76H213.81V59.665H218.045C220.075 59.665 221.685 60.015 222.84 60.785C223.995 61.52 224.555 62.85 224.555 64.705C224.555 66.245 223.995 67.47 222.91 68.45C221.825 69.395 220.39 69.885 218.57 69.885C216.015 69.885 214.405 69.185 213.495 67.75C213.005 66.945 212.655 65.685 212.515 63.9H208.945C208.945 66.455 209.68 68.59 211.15 70.34C212.585 72.125 214.93 73 218.395 73C221.545 73 223.96 72.195 225.675 70.55C227.39 68.905 228.265 66.805 228.265 64.18C228.265 62.57 227.845 61.205 227.04 60.085ZM237.657 73C240.422 73 242.277 71.81 243.222 70.34V73H248.367V69.815H246.267V58.545C246.267 56.795 245.532 55.5 244.202 54.695C242.837 53.855 241.752 53.435 239.582 53.435C238.182 53.435 236.397 53.89 234.997 54.8C233.597 55.675 232.827 57.25 232.757 59.525H235.907C236.222 56.76 237.272 56.06 240.247 56.06C241.262 56.06 243.187 56.34 243.187 59.07C243.187 59.595 243.117 60.015 242.977 60.26C242.732 60.785 242.277 61.065 241.542 61.17L237.622 61.8C235.907 62.01 234.507 62.57 233.422 63.515C232.337 64.46 231.777 65.825 231.777 67.54C231.777 69.115 232.337 70.41 233.457 71.425C234.542 72.475 235.942 73 237.657 73ZM238.357 70.34C237.447 70.34 236.677 70.06 236.012 69.57C235.382 69.045 235.032 68.345 235.032 67.435C235.032 66.28 235.522 65.37 236.502 64.845C238.357 63.795 241.927 63.655 243.117 63.375V65.475C243.117 68.415 241.507 70.34 238.357 70.34ZM259.61 51.755C262.97 51.755 265.77 49.865 265.77 46.715H262.48C262.165 48.57 261.535 49.41 259.61 49.41C258.105 49.41 257.125 48.325 256.88 46.715H253.59C253.73 49.97 256.39 51.755 259.61 51.755ZM255.025 67.225V53.435H251.875V73H254.85L264.755 57.88L264.79 73H267.94V53.435H264.37L255.025 67.225ZM287.701 53.435H284.551V69.85H274.576V53.435H271.426V73H290.851V69.85H287.701V53.435ZM301.701 73C305.796 73 309.786 70.795 309.786 66.595L306.706 66.56C306.706 69.22 303.976 70.305 301.981 70.305C298.656 70.305 296.801 68.835 296.626 64.075H310.486C310.486 62.22 310.381 60.89 310.241 60.015C309.296 55.185 306.006 53.435 302.191 53.435C296.731 53.435 293.301 56.97 293.301 63.48C293.301 69.78 296.591 73 301.701 73ZM296.696 61.625C296.731 57.705 299.391 56.13 301.981 56.13C304.921 56.13 307.301 57.845 307.301 61.625H296.696ZM321.154 73C323.919 73 325.459 72.685 326.929 70.97C328.679 68.975 328.644 65.195 327.174 63.48C326.404 62.535 325.179 61.765 322.904 62.115C328.994 60.89 328.014 53.435 322.239 53.435H313.979V73H321.154ZM317.059 55.675C320.874 55.675 324.024 55.22 324.024 57.915C324.024 59.77 322.869 60.82 317.724 60.715H317.059V55.675ZM317.059 63.725L322.099 63.83C323.359 63.865 324.234 64.04 324.759 64.565C325.984 65.825 325.704 68.135 325.004 69.15C324.164 70.375 322.449 70.48 321.469 70.48H317.059V63.725Z" fill="#B2E8D4" fill-opacity="0.01"/>
</g>
<rect y="15" width="428" height="89" fill="black" fill-opacity="0.01"/>
<defs>
<filter id="filter0_f_448_36" x="53.75" y="0" width="320.244" height="118.595" filterUnits="userSpaceOnUse" color-interpolation-filters="sRGB">
<feFlood flood-opacity="0" result="BackgroundImageFix"/>
<feBlend mode="normal" in="SourceGraphic" in2="BackgroundImageFix" result="shape"/>
<feGaussianBlur stdDeviation="22.5" result="effect1_foregroundBlur_448_36"/>
</filter>
</defs>
</svg>
