<svg width="428" height="120" viewBox="0 0 428 120" fill="none" xmlns="http://www.w3.org/2000/svg">
<path d="M108.245 73.895C116.085 73.195 119.935 66.825 119.55 58.46C119.095 50.095 114.72 45.335 106.88 45.93C99.215 46.525 95.365 52.825 95.785 60.945C96.205 69.205 100.545 74.455 108.245 73.895ZM108.525 69.94C102.75 70.395 99.915 66.72 99.635 60.735C99.32 54.47 101.875 50.025 107.335 49.57C112.55 49.15 115.63 53.035 115.84 58.74C116.19 64.76 113.95 69.485 108.525 69.94ZM137.084 57.585H128.159V74H122.034V70.85H125.009L125.044 54.435H140.234V74H137.084V57.585ZM158.473 54.435H150.038C146.188 54.435 143.738 56.045 143.738 59.755C143.738 61.89 144.613 63.395 146.468 64.41C144.753 65.145 144.193 65.705 144.123 68.085V74H147.273L147.343 69.065C147.378 66.86 148.358 66.125 151.053 66.125H155.323V74H158.473V54.435ZM151.018 63.395C148.393 63.395 147.133 62.38 147.133 60C147.133 58.495 148.288 57.48 150.703 57.48H155.323V63.395H151.018ZM197.529 49.22H183.949V74H176.004V70.78H180.239L180.274 46H201.239V74H197.529V49.22ZM213.569 74.07C219.064 73.58 221.759 69.1 221.479 63.22C221.164 57.34 218.084 54.015 212.589 54.4C207.199 54.82 204.504 59.265 204.784 64.97C205.099 70.78 208.144 74.455 213.569 74.07ZM213.569 70.955C209.684 71.305 207.759 68.82 207.619 64.83C207.374 60.595 209.124 57.62 212.764 57.34C216.264 57.025 218.329 59.65 218.469 63.5C218.714 67.49 217.209 70.675 213.569 70.955ZM228.168 74V57.585H233.908V54.435H225.018V74H228.168ZM240.541 68.225V54.435H237.391V74H240.366L250.271 58.88L250.306 74H253.456V54.435H249.886L240.541 68.225ZM270.486 59.615V59.58H260.091V54.435H256.941V74H260.091V62.485H270.486L270.521 74H273.671V54.435H270.521L270.486 59.615ZM285.996 74.07C291.491 73.58 294.186 69.1 293.906 63.22C293.591 57.34 290.511 54.015 285.016 54.4C279.626 54.82 276.931 59.265 277.211 64.97C277.526 70.78 280.571 74.455 285.996 74.07ZM285.996 70.955C282.111 71.305 280.186 68.82 280.046 64.83C279.801 60.595 281.551 57.62 285.191 57.34C288.691 57.025 290.756 59.65 290.896 63.5C291.141 67.49 289.636 70.675 285.996 70.955ZM304.619 74C307.384 74 308.924 73.685 310.394 71.97C312.144 69.975 312.109 66.195 310.639 64.48C309.869 63.535 308.644 62.765 306.369 63.115C312.459 61.89 311.479 54.435 305.704 54.435H297.444V74H304.619ZM300.524 56.675C304.339 56.675 307.489 56.22 307.489 58.915C307.489 60.77 306.334 61.82 301.189 61.715H300.524V56.675ZM300.524 64.725L305.564 64.83C306.824 64.865 307.699 65.04 308.224 65.565C309.449 66.825 309.169 69.135 308.469 70.15C307.629 71.375 305.914 71.48 304.934 71.48H300.524V64.725ZM320.414 74C323.179 74 325.034 72.81 325.979 71.34V74H331.124V70.815H329.024V59.545C329.024 57.795 328.289 56.5 326.959 55.695C325.594 54.855 324.509 54.435 322.339 54.435C320.939 54.435 319.154 54.89 317.754 55.8C316.354 56.675 315.584 58.25 315.514 60.525H318.664C318.979 57.76 320.029 57.06 323.004 57.06C324.019 57.06 325.944 57.34 325.944 60.07C325.944 60.595 325.874 61.015 325.734 61.26C325.489 61.785 325.034 62.065 324.299 62.17L320.379 62.8C318.664 63.01 317.264 63.57 316.179 64.515C315.094 65.46 314.534 66.825 314.534 68.54C314.534 70.115 315.094 71.41 316.214 72.425C317.299 73.475 318.699 74 320.414 74ZM321.114 71.34C320.204 71.34 319.434 71.06 318.769 70.57C318.139 70.045 317.789 69.345 317.789 68.435C317.789 67.28 318.279 66.37 319.259 65.845C321.114 64.795 324.684 64.655 325.874 64.375V66.475C325.874 69.415 324.264 71.34 321.114 71.34Z" fill="#B2E8D4"/>
<g filter="url(#filter0_f_448_21)">
<path d="M108.245 73.895C116.085 73.195 119.935 66.825 119.55 58.46C119.095 50.095 114.72 45.335 106.88 45.93C99.215 46.525 95.365 52.825 95.785 60.945C96.205 69.205 100.545 74.455 108.245 73.895ZM108.525 69.94C102.75 70.395 99.915 66.72 99.635 60.735C99.32 54.47 101.875 50.025 107.335 49.57C112.55 49.15 115.63 53.035 115.84 58.74C116.19 64.76 113.95 69.485 108.525 69.94ZM137.084 57.585H128.159V74H122.034V70.85H125.009L125.044 54.435H140.234V74H137.084V57.585ZM158.473 54.435H150.038C146.188 54.435 143.738 56.045 143.738 59.755C143.738 61.89 144.613 63.395 146.468 64.41C144.753 65.145 144.193 65.705 144.123 68.085V74H147.273L147.343 69.065C147.378 66.86 148.358 66.125 151.053 66.125H155.323V74H158.473V54.435ZM151.018 63.395C148.393 63.395 147.133 62.38 147.133 60C147.133 58.495 148.288 57.48 150.703 57.48H155.323V63.395H151.018ZM197.529 49.22H183.949V74H176.004V70.78H180.239L180.274 46H201.239V74H197.529V49.22ZM213.569 74.07C219.064 73.58 221.759 69.1 221.479 63.22C221.164 57.34 218.084 54.015 212.589 54.4C207.199 54.82 204.504 59.265 204.784 64.97C205.099 70.78 208.144 74.455 213.569 74.07ZM213.569 70.955C209.684 71.305 207.759 68.82 207.619 64.83C207.374 60.595 209.124 57.62 212.764 57.34C216.264 57.025 218.329 59.65 218.469 63.5C218.714 67.49 217.209 70.675 213.569 70.955ZM228.168 74V57.585H233.908V54.435H225.018V74H228.168ZM240.541 68.225V54.435H237.391V74H240.366L250.271 58.88L250.306 74H253.456V54.435H249.886L240.541 68.225ZM270.486 59.615V59.58H260.091V54.435H256.941V74H260.091V62.485H270.486L270.521 74H273.671V54.435H270.521L270.486 59.615ZM285.996 74.07C291.491 73.58 294.186 69.1 293.906 63.22C293.591 57.34 290.511 54.015 285.016 54.4C279.626 54.82 276.931 59.265 277.211 64.97C277.526 70.78 280.571 74.455 285.996 74.07ZM285.996 70.955C282.111 71.305 280.186 68.82 280.046 64.83C279.801 60.595 281.551 57.62 285.191 57.34C288.691 57.025 290.756 59.65 290.896 63.5C291.141 67.49 289.636 70.675 285.996 70.955ZM304.619 74C307.384 74 308.924 73.685 310.394 71.97C312.144 69.975 312.109 66.195 310.639 64.48C309.869 63.535 308.644 62.765 306.369 63.115C312.459 61.89 311.479 54.435 305.704 54.435H297.444V74H304.619ZM300.524 56.675C304.339 56.675 307.489 56.22 307.489 58.915C307.489 60.77 306.334 61.82 301.189 61.715H300.524V56.675ZM300.524 64.725L305.564 64.83C306.824 64.865 307.699 65.04 308.224 65.565C309.449 66.825 309.169 69.135 308.469 70.15C307.629 71.375 305.914 71.48 304.934 71.48H300.524V64.725ZM320.414 74C323.179 74 325.034 72.81 325.979 71.34V74H331.124V70.815H329.024V59.545C329.024 57.795 328.289 56.5 326.959 55.695C325.594 54.855 324.509 54.435 322.339 54.435C320.939 54.435 319.154 54.89 317.754 55.8C316.354 56.675 315.584 58.25 315.514 60.525H318.664C318.979 57.76 320.029 57.06 323.004 57.06C324.019 57.06 325.944 57.34 325.944 60.07C325.944 60.595 325.874 61.015 325.734 61.26C325.489 61.785 325.034 62.065 324.299 62.17L320.379 62.8C318.664 63.01 317.264 63.57 316.179 64.515C315.094 65.46 314.534 66.825 314.534 68.54C314.534 70.115 315.094 71.41 316.214 72.425C317.299 73.475 318.699 74 320.414 74ZM321.114 71.34C320.204 71.34 319.434 71.06 318.769 70.57C318.139 70.045 317.789 69.345 317.789 68.435C317.789 67.28 318.279 66.37 319.259 65.845C321.114 64.795 324.684 64.655 325.874 64.375V66.475C325.874 69.415 324.264 71.34 321.114 71.34Z" fill="#B2E8D4" fill-opacity="0.01"/>
</g>
<rect y="15" width="428" height="89" fill="url(#paint0_linear_448_21)" fill-opacity="0.01"/>
<defs>
<filter id="filter0_f_448_21" x="50.3652" y="0.334961" width="325.76" height="119.12" filterUnits="userSpaceOnUse" color-interpolation-filters="sRGB">
<feFlood flood-opacity="0" result="BackgroundImageFix"/>
<feBlend mode="normal" in="SourceGraphic" in2="BackgroundImageFix" result="shape"/>
<feGaussianBlur stdDeviation="22.5" result="effect1_foregroundBlur_448_21"/>
</filter>
<linearGradient id="paint0_linear_448_21" x1="428" y1="60" x2="9.49998" y2="60" gradientUnits="userSpaceOnUse">
<stop stop-color="#929292" stop-opacity="0.23"/>
<stop offset="1" stop-color="#929292" stop-opacity="0"/>
</linearGradient>
</defs>
</svg>
