<svg width="428" height="119" viewBox="0 0 428 119" fill="none" xmlns="http://www.w3.org/2000/svg">
<rect x="26" y="14" width="375" height="89" fill="black" fill-opacity="0.01"/>
<path d="M64.5938 48.22H49.6138V73H45.7988L45.8338 45H68.4088V73H64.5938V48.22ZM80.7321 73.07C86.2271 72.58 88.9221 68.1 88.6421 62.22C88.3271 56.34 85.2471 53.015 79.7521 53.4C74.3621 53.82 71.6671 58.265 71.9471 63.97C72.2621 69.78 75.3071 73.455 80.7321 73.07ZM80.7321 69.955C76.8471 70.305 74.9221 67.82 74.7821 63.83C74.5371 59.595 76.2871 56.62 79.9271 56.34C83.4271 56.025 85.4921 58.65 85.6321 62.5C85.8771 66.49 84.3721 69.675 80.7321 69.955ZM106.547 56.585H97.6221V73H91.4971V69.85H94.4721L94.5071 53.435H109.697V73H106.547V56.585ZM116.351 67.225V53.435H113.201V73H116.176L126.081 57.88L126.116 73H129.266V53.435H125.696L116.351 67.225ZM146.297 58.615V58.58H135.902V53.435H132.752V73H135.902V61.485H146.297L146.332 73H149.482V53.435H146.332L146.297 58.615ZM158.866 73C161.631 73 163.486 71.81 164.431 70.34V73H169.576V69.815H167.476V58.545C167.476 56.795 166.741 55.5 165.411 54.695C164.046 53.855 162.961 53.435 160.791 53.435C159.391 53.435 157.606 53.89 156.206 54.8C154.806 55.675 154.036 57.25 153.966 59.525H157.116C157.431 56.76 158.481 56.06 161.456 56.06C162.471 56.06 164.396 56.34 164.396 59.07C164.396 59.595 164.326 60.015 164.186 60.26C163.941 60.785 163.486 61.065 162.751 61.17L158.831 61.8C157.116 62.01 155.716 62.57 154.631 63.515C153.546 64.46 152.986 65.825 152.986 67.54C152.986 69.115 153.546 70.41 154.666 71.425C155.751 72.475 157.151 73 158.866 73ZM159.566 70.34C158.656 70.34 157.886 70.06 157.221 69.57C156.591 69.045 156.241 68.345 156.241 67.435C156.241 66.28 156.731 65.37 157.711 64.845C159.566 63.795 163.136 63.655 164.326 63.375V65.475C164.326 68.415 162.716 70.34 159.566 70.34ZM205.893 48.22H190.913V73H187.098L187.133 45H209.708V73H205.893V48.22ZM222.031 73.07C227.526 72.58 230.221 68.1 229.941 62.22C229.626 56.34 226.546 53.015 221.051 53.4C215.661 53.82 212.966 58.265 213.246 63.97C213.561 69.78 216.606 73.455 222.031 73.07ZM222.031 69.955C218.146 70.305 216.221 67.82 216.081 63.83C215.836 59.595 217.586 56.62 221.226 56.34C224.726 56.025 226.791 58.65 226.931 62.5C227.176 66.49 225.671 69.675 222.031 69.955ZM240.199 73C242.404 73 244.119 72.44 245.344 71.25C246.569 70.095 247.199 68.555 247.199 66.7C247.199 65.58 246.849 64.565 246.289 63.76C245.869 63.13 245.309 62.675 244.644 62.36C244.959 62.115 245.239 61.87 245.484 61.59C246.149 60.855 246.499 59.84 246.499 58.615C246.499 56.935 245.939 55.64 244.819 54.765C243.734 53.89 242.194 53.4 240.234 53.4C237.609 53.4 235.824 54.345 234.809 56.165C234.214 57.215 233.899 58.615 233.934 60.19H236.979C236.979 58.965 237.154 58.125 237.469 57.565C237.994 56.655 238.904 56.2 240.549 56.2C241.354 56.2 241.949 56.41 242.544 56.9C243.139 57.32 243.384 57.845 243.384 58.72C243.384 59.84 243.034 60.54 242.159 60.995C241.599 61.24 240.969 61.345 240.129 61.345H236.769V64.005H237.119H239.954C241.284 64.005 242.299 64.215 242.999 64.705C243.664 65.16 244.014 65.86 244.014 67.085C244.014 68.03 243.664 68.73 242.999 69.325C242.369 69.955 241.494 70.235 240.304 70.235C238.694 70.235 237.749 69.815 237.189 68.975C236.909 68.38 236.629 67.505 236.524 66.175H233.479C233.409 68.135 233.934 69.815 235.019 71.075C236.069 72.37 237.784 73 240.199 73ZM250.706 70.235H253.226L255.221 53.47H266.176V70.235H268.556V73H250.706V70.235ZM263.026 70.235V56.27H257.916C257.776 57.67 256.376 68.765 256.131 70.235H263.026ZM285.613 58.615V58.58H275.218V53.435H272.068V73H275.218V61.485H285.613L285.648 73H288.798V53.435H285.648L285.613 58.615ZM307.038 53.435H298.603C294.753 53.435 292.303 55.045 292.303 58.755C292.303 60.89 293.178 62.395 295.033 63.41C293.318 64.145 292.758 64.705 292.688 67.085V73H295.838L295.908 68.065C295.943 65.86 296.923 65.125 299.618 65.125H303.888V73H307.038V53.435ZM299.583 62.395C296.958 62.395 295.698 61.38 295.698 59C295.698 57.495 296.853 56.48 299.268 56.48H303.888V62.395H299.583ZM313.74 73V62.64C313.95 62.57 319.375 61.135 322.21 64.075C324.135 66.035 323.995 68.065 323.995 70.655V73H327.18V70.025C327.18 67.75 327.425 63.76 323.19 61.1C320.565 59.42 317.52 59.49 316.33 59.665L322.735 55.5L320.915 53.05L313.74 57.81V52.945H310.555V73H313.74ZM337.763 73.07C343.258 72.58 345.953 68.1 345.673 62.22C345.358 56.34 342.278 53.015 336.783 53.4C331.393 53.82 328.698 58.265 328.978 63.97C329.293 69.78 332.338 73.455 337.763 73.07ZM337.763 69.955C333.878 70.305 331.953 67.82 331.813 63.83C331.568 59.595 333.318 56.62 336.958 56.34C340.458 56.025 342.523 58.65 342.663 62.5C342.908 66.49 341.403 69.675 337.763 69.955ZM356.387 73C359.152 73 360.692 72.685 362.162 70.97C363.912 68.975 363.877 65.195 362.407 63.48C361.637 62.535 360.412 61.765 358.137 62.115C364.227 60.89 363.247 53.435 357.472 53.435H349.212V73H356.387ZM352.292 55.675C356.107 55.675 359.257 55.22 359.257 57.915C359.257 59.77 358.102 60.82 352.957 60.715H352.292V55.675ZM352.292 63.725L357.332 63.83C358.592 63.865 359.467 64.04 359.992 64.565C361.217 65.825 360.937 68.135 360.237 69.15C359.397 70.375 357.682 70.48 356.702 70.48H352.292V63.725ZM372.182 73C374.947 73 376.802 71.81 377.747 70.34V73H382.892V69.815H380.792V58.545C380.792 56.795 380.057 55.5 378.727 54.695C377.362 53.855 376.277 53.435 374.107 53.435C372.707 53.435 370.922 53.89 369.522 54.8C368.122 55.675 367.352 57.25 367.282 59.525H370.432C370.747 56.76 371.797 56.06 374.772 56.06C375.787 56.06 377.712 56.34 377.712 59.07C377.712 59.595 377.642 60.015 377.502 60.26C377.257 60.785 376.802 61.065 376.067 61.17L372.147 61.8C370.432 62.01 369.032 62.57 367.947 63.515C366.862 64.46 366.302 65.825 366.302 67.54C366.302 69.115 366.862 70.41 367.982 71.425C369.067 72.475 370.467 73 372.182 73ZM372.882 70.34C371.972 70.34 371.202 70.06 370.537 69.57C369.907 69.045 369.557 68.345 369.557 67.435C369.557 66.28 370.047 65.37 371.027 64.845C372.882 63.795 376.452 63.655 377.642 63.375V65.475C377.642 68.415 376.032 70.34 372.882 70.34Z" fill="#B2E8D4"/>
<g filter="url(#filter0_f_448_34)">
<path d="M64.5938 48.22H49.6138V73H45.7988L45.8338 45H68.4088V73H64.5938V48.22ZM80.7321 73.07C86.2271 72.58 88.9221 68.1 88.6421 62.22C88.3271 56.34 85.2471 53.015 79.7521 53.4C74.3621 53.82 71.6671 58.265 71.9471 63.97C72.2621 69.78 75.3071 73.455 80.7321 73.07ZM80.7321 69.955C76.8471 70.305 74.9221 67.82 74.7821 63.83C74.5371 59.595 76.2871 56.62 79.9271 56.34C83.4271 56.025 85.4921 58.65 85.6321 62.5C85.8771 66.49 84.3721 69.675 80.7321 69.955ZM106.547 56.585H97.6221V73H91.4971V69.85H94.4721L94.5071 53.435H109.697V73H106.547V56.585ZM116.351 67.225V53.435H113.201V73H116.176L126.081 57.88L126.116 73H129.266V53.435H125.696L116.351 67.225ZM146.297 58.615V58.58H135.902V53.435H132.752V73H135.902V61.485H146.297L146.332 73H149.482V53.435H146.332L146.297 58.615ZM158.866 73C161.631 73 163.486 71.81 164.431 70.34V73H169.576V69.815H167.476V58.545C167.476 56.795 166.741 55.5 165.411 54.695C164.046 53.855 162.961 53.435 160.791 53.435C159.391 53.435 157.606 53.89 156.206 54.8C154.806 55.675 154.036 57.25 153.966 59.525H157.116C157.431 56.76 158.481 56.06 161.456 56.06C162.471 56.06 164.396 56.34 164.396 59.07C164.396 59.595 164.326 60.015 164.186 60.26C163.941 60.785 163.486 61.065 162.751 61.17L158.831 61.8C157.116 62.01 155.716 62.57 154.631 63.515C153.546 64.46 152.986 65.825 152.986 67.54C152.986 69.115 153.546 70.41 154.666 71.425C155.751 72.475 157.151 73 158.866 73ZM159.566 70.34C158.656 70.34 157.886 70.06 157.221 69.57C156.591 69.045 156.241 68.345 156.241 67.435C156.241 66.28 156.731 65.37 157.711 64.845C159.566 63.795 163.136 63.655 164.326 63.375V65.475C164.326 68.415 162.716 70.34 159.566 70.34ZM205.893 48.22H190.913V73H187.098L187.133 45H209.708V73H205.893V48.22ZM222.031 73.07C227.526 72.58 230.221 68.1 229.941 62.22C229.626 56.34 226.546 53.015 221.051 53.4C215.661 53.82 212.966 58.265 213.246 63.97C213.561 69.78 216.606 73.455 222.031 73.07ZM222.031 69.955C218.146 70.305 216.221 67.82 216.081 63.83C215.836 59.595 217.586 56.62 221.226 56.34C224.726 56.025 226.791 58.65 226.931 62.5C227.176 66.49 225.671 69.675 222.031 69.955ZM240.199 73C242.404 73 244.119 72.44 245.344 71.25C246.569 70.095 247.199 68.555 247.199 66.7C247.199 65.58 246.849 64.565 246.289 63.76C245.869 63.13 245.309 62.675 244.644 62.36C244.959 62.115 245.239 61.87 245.484 61.59C246.149 60.855 246.499 59.84 246.499 58.615C246.499 56.935 245.939 55.64 244.819 54.765C243.734 53.89 242.194 53.4 240.234 53.4C237.609 53.4 235.824 54.345 234.809 56.165C234.214 57.215 233.899 58.615 233.934 60.19H236.979C236.979 58.965 237.154 58.125 237.469 57.565C237.994 56.655 238.904 56.2 240.549 56.2C241.354 56.2 241.949 56.41 242.544 56.9C243.139 57.32 243.384 57.845 243.384 58.72C243.384 59.84 243.034 60.54 242.159 60.995C241.599 61.24 240.969 61.345 240.129 61.345H236.769V64.005H237.119H239.954C241.284 64.005 242.299 64.215 242.999 64.705C243.664 65.16 244.014 65.86 244.014 67.085C244.014 68.03 243.664 68.73 242.999 69.325C242.369 69.955 241.494 70.235 240.304 70.235C238.694 70.235 237.749 69.815 237.189 68.975C236.909 68.38 236.629 67.505 236.524 66.175H233.479C233.409 68.135 233.934 69.815 235.019 71.075C236.069 72.37 237.784 73 240.199 73ZM250.706 70.235H253.226L255.221 53.47H266.176V70.235H268.556V73H250.706V70.235ZM263.026 70.235V56.27H257.916C257.776 57.67 256.376 68.765 256.131 70.235H263.026ZM285.613 58.615V58.58H275.218V53.435H272.068V73H275.218V61.485H285.613L285.648 73H288.798V53.435H285.648L285.613 58.615ZM307.038 53.435H298.603C294.753 53.435 292.303 55.045 292.303 58.755C292.303 60.89 293.178 62.395 295.033 63.41C293.318 64.145 292.758 64.705 292.688 67.085V73H295.838L295.908 68.065C295.943 65.86 296.923 65.125 299.618 65.125H303.888V73H307.038V53.435ZM299.583 62.395C296.958 62.395 295.698 61.38 295.698 59C295.698 57.495 296.853 56.48 299.268 56.48H303.888V62.395H299.583ZM313.74 73V62.64C313.95 62.57 319.375 61.135 322.21 64.075C324.135 66.035 323.995 68.065 323.995 70.655V73H327.18V70.025C327.18 67.75 327.425 63.76 323.19 61.1C320.565 59.42 317.52 59.49 316.33 59.665L322.735 55.5L320.915 53.05L313.74 57.81V52.945H310.555V73H313.74ZM337.763 73.07C343.258 72.58 345.953 68.1 345.673 62.22C345.358 56.34 342.278 53.015 336.783 53.4C331.393 53.82 328.698 58.265 328.978 63.97C329.293 69.78 332.338 73.455 337.763 73.07ZM337.763 69.955C333.878 70.305 331.953 67.82 331.813 63.83C331.568 59.595 333.318 56.62 336.958 56.34C340.458 56.025 342.523 58.65 342.663 62.5C342.908 66.49 341.403 69.675 337.763 69.955ZM356.387 73C359.152 73 360.692 72.685 362.162 70.97C363.912 68.975 363.877 65.195 362.407 63.48C361.637 62.535 360.412 61.765 358.137 62.115C364.227 60.89 363.247 53.435 357.472 53.435H349.212V73H356.387ZM352.292 55.675C356.107 55.675 359.257 55.22 359.257 57.915C359.257 59.77 358.102 60.82 352.957 60.715H352.292V55.675ZM352.292 63.725L357.332 63.83C358.592 63.865 359.467 64.04 359.992 64.565C361.217 65.825 360.937 68.135 360.237 69.15C359.397 70.375 357.682 70.48 356.702 70.48H352.292V63.725ZM372.182 73C374.947 73 376.802 71.81 377.747 70.34V73H382.892V69.815H380.792V58.545C380.792 56.795 380.057 55.5 378.727 54.695C377.362 53.855 376.277 53.435 374.107 53.435C372.707 53.435 370.922 53.89 369.522 54.8C368.122 55.675 367.352 57.25 367.282 59.525H370.432C370.747 56.76 371.797 56.06 374.772 56.06C375.787 56.06 377.712 56.34 377.712 59.07C377.712 59.595 377.642 60.015 377.502 60.26C377.257 60.785 376.802 61.065 376.067 61.17L372.147 61.8C370.432 62.01 369.032 62.57 367.947 63.515C366.862 64.46 366.302 65.825 366.302 67.54C366.302 69.115 366.862 70.41 367.982 71.425C369.067 72.475 370.467 73 372.182 73ZM372.882 70.34C371.972 70.34 371.202 70.06 370.537 69.57C369.907 69.045 369.557 68.345 369.557 67.435C369.557 66.28 370.047 65.37 371.027 64.845C372.882 63.795 376.452 63.655 377.642 63.375V65.475C377.642 68.415 376.032 70.34 372.882 70.34Z" fill="#B2E8D4" fill-opacity="0.02"/>
</g>
<defs>
<filter id="filter0_f_448_34" x="0.798828" y="0" width="427.094" height="118.455" filterUnits="userSpaceOnUse" color-interpolation-filters="sRGB">
<feFlood flood-opacity="0" result="BackgroundImageFix"/>
<feBlend mode="normal" in="SourceGraphic" in2="BackgroundImageFix" result="shape"/>
<feGaussianBlur stdDeviation="22.5" result="effect1_foregroundBlur_448_34"/>
</filter>
</defs>
</svg>
